<?xml version="1.0" standalone="no"?>
<!DOCTYPE svg PUBLIC "-//W3C//DTD SVG 20010904//EN"
 "http://www.w3.org/TR/2001/REC-SVG-20010904/DTD/svg10.dtd">
<svg version="1.0" xmlns="http://www.w3.org/2000/svg"
 width="128.000000pt" height="128.000000pt" viewBox="0 0 128.000000 128.000000"
 preserveAspectRatio="xMidYMid meet">
<metadata>
Created by potrace 1.14, written by Peter Selinger 2001-2017
</metadata>
<g transform="translate(0.000000,128.000000) scale(0.100000,-0.100000)"
fill="#000000" stroke="none">
<path d="M530 1186 c-98 -22 -163 -50 -200 -86 -46 -47 -75 -83 -72 -92 1 -5
-2 -8 -7 -8 -4 0 -20 -27 -34 -60 -22 -50 -31 -60 -51 -60 -30 0 -73 -16 -90
-33 -21 -21 -25 -45 -27 -154 -2 -96 -1 -105 22 -129 64 -70 222 -107 464
-108 182 -1 273 12 408 59 37 13 67 21 68 17 0 -4 2 -15 4 -24 18 -96 18 -96
-14 -103 -28 -6 -89 -63 -92 -85 -2 -14 -6 -30 -9 -32 -1 -2 -3 -19 -4 -38 -6
-80 65 -156 152 -167 43 -5 57 -2 95 20 56 33 77 66 84 131 7 67 -16 118 -68
155 -36 25 -37 27 -31 71 4 25 7 104 7 175 -1 147 -20 231 -79 338 -37 67
-122 159 -169 184 -75 39 -250 53 -357 29z"/>
</g>
</svg>
